<svg xmlns="http://www.w3.org/2000/svg" width="150.95" height="88.11" viewBox="0 0 150.95 88.11">
  <g>
    <path d="M52.38,42.41c-6.66,0-12.08-4.85-12.08-10.82V13.73a2.84,2.84,0,0,1,5.69,0V31.59c0,2.78,2.93,5.13,6.4,5.13s6.4-2.35,6.4-5.13V13.73a2.84,2.84,0,0,1,5.69,0V31.59C64.46,37.56,59,42.41,52.38,42.41Z" style="fill: #fff"/>
    <path d="M19.74,42.33H10.79A2.84,2.84,0,0,1,8,39.49V13.73a2.84,2.84,0,0,1,2.84-2.84h8.94a15.72,15.72,0,1,1,0,31.45Zm-6.1-5.69h6.1a10,10,0,1,0,0-20.08h-6.1Z" style="fill: #fff"/>
    <g>
      <path d="M112.7,42.33a2.84,2.84,0,0,1-2.84-2.84V13.73a2.84,2.84,0,0,1,5.69,0V39.49A2.84,2.84,0,0,1,112.7,42.33Z" style="fill: #fff"/>
      <path d="M113.72,32.26a2.84,2.84,0,0,1-1.83-5l18.71-15.69a2.84,2.84,0,1,1,3.65,4.36L115.55,31.6A2.83,2.83,0,0,1,113.72,32.26Z" style="fill: #fff"/>
      <path d="M132.52,42.29a2.84,2.84,0,0,1-2.26-1.11L119.75,27.45A2.84,2.84,0,1,1,124.27,24l10.51,13.73a2.84,2.84,0,0,1-2.26,4.57Z" style="fill: #fff"/>
    </g>
    <path d="M52,71.25A11.72,11.72,0,1,1,60,50.9a2.61,2.61,0,0,1-3.53,3.83,6.51,6.51,0,1,0,0,9.58A2.61,2.61,0,0,1,60,68.14,11.69,11.69,0,0,1,52,71.25Z" style="fill: #fff"/>
    <path d="M75,71.21A11.71,11.71,0,1,1,86.73,59.51,11.72,11.72,0,0,1,75,71.21ZM75,53a6.49,6.49,0,1,0,6.49,6.49A6.5,6.5,0,0,0,75,53Z" style="fill: #fff"/>
    <path d="M109.09,71.21a2.61,2.61,0,0,1-1.95-.87L95.48,57.22V68.61a2.61,2.61,0,0,1-5.21,0V50.37a2.61,2.61,0,0,1,4.55-1.73l11.66,13.12V50.37a2.61,2.61,0,0,1,5.21,0V68.61a2.61,2.61,0,0,1-2.61,2.61Z" style="fill: #fff"/>
    <g>
      <path d="M118.55,71.21a2.61,2.61,0,0,1-2.61-2.61V50.37a2.61,2.61,0,0,1,2.61-2.61h14.22a2.61,2.61,0,0,1,0,5.21H121.15V68.61A2.61,2.61,0,0,1,118.55,71.21Z" style="fill: #fff"/>
      <path d="M129.8,62.59h-9.42a2.61,2.61,0,1,1,0-5.21h9.42a2.61,2.61,0,0,1,0,5.21Z" style="fill: #fff"/>
    </g>
    <g>
      <path d="M84.23,42.37a15.72,15.72,0,1,1,12-25.85,2.84,2.84,0,1,1-4.35,3.67,10,10,0,1,0-2.66,15.16,2.84,2.84,0,1,1,2.85,4.92A15.72,15.72,0,0,1,84.23,42.37Z" style="fill: #fff"/>
      <circle cx="87.27" cy="22.83" r="2.78" transform="translate(-2.07 10.33) rotate(-6.7)" style="fill: #fff"/>
      <path d="M103.54,29.56H93.61a2.84,2.84,0,1,1,0-5.69h9.93a2.84,2.84,0,1,1,0,5.69Z" style="fill: #ff0"/>
    </g>
  </g>
</svg>